<svg xmlns="http://www.w3.org/2000/svg" viewBox="0 0 1050.42 1356.35"><g data-name="Layer 2"><g data-name="Layer 1"><path fill="#d47b4e" d="M864.72,1287.47c9.7,19.42,19,39.9,17.81,45.38-2.33,11.19-.47,27.2,9,21.84S953,1320.63,953,1320.63s-2.82-13.08-7.5-11.14-13.3,16.41-13.3,16.41l-27.8,7.81-18.15-58.29-12.47-40-29.69,13S854.66,1267.36,864.72,1287.47Z" class="colord47b4e svgShape"/><path fill="#e5baa9" d="M873.79,1235.43l-29.69,13s10.56,19,20.62,39.09l21.54-12Z" class="colore5baa9 svgShape"/><path fill="#d47b4e" d="M418.14,1313.85c1.87,7.9,1,16.69-.48,23.61a13.1,13.1,0,0,0,10.17,15.42l16.52,3.47c3.15-18.59-12.9-12-12.9-12l.73-43.77,26.29-24.27c15.83-14.62,33.12-30.6,34.15-31.62l-20.67-19s-12.23,20.22-28.23,34.53c-7.1,6.38-15,11.57-22.82,13.32C395.36,1279.23,414.31,1297.63,418.14,1313.85Z" class="colord47b4e svgShape"/><path fill="#e5baa9" d="M443.72 1260.27l14.75 16.08c15.83-14.62 33.12-30.6 34.15-31.62l-20.67-19S459.72 1246 443.72 1260.27zM795.54 1227.55c-14.29-41.56-67.47-230.49-101.42-353-17-61.45-29.22-106.17-29.22-107.14 0 0 124.78-40 133.56-32.18 5.16 4.58 31.22 135 55.78 258.45 17.19 86.42 33.65 169.47 41.69 203.6C915.42 1280.18 817 1289.91 795.54 1227.55z" class="colore5baa9 svgShape"/><path d="M795.54,1227.55c-14.29-41.56-67.47-230.49-101.42-353a76.61,76.61,0,0,1,21.31-18.33S745.37,999.92,806.19,1069c36.57,41.53,48-10.43,48-75.29,17.19,86.42,33.65,169.47,41.69,203.6C915.42,1280.18,817,1289.91,795.54,1227.55Z" style="mix-blend-mode:multiply" fill="#ae9bb1" opacity=".3" class="colorae9bb1 svgShape"/><path fill="#e5baa9" d="M740,855.17c-.56,3.17-1.17,6.55-1.82,10.12-11.17,60.14-38,173.53-52.78,213.1-15.58,41.91-77.62,142.95-139,175.11S433.27,1234,462.5,1197c29-36.76,124.87-150.89,126.36-152.67l0,0s14.61-278.8,15.58-282.7l26.34-43.86,111.12,17.55S749.71,798.63,740,855.17Z" class="colore5baa9 svgShape"/><path fill="#647ca0" d="M552.65,281.2c27.48-23.81,100.13-31.75,100.13-31.75l12.82,45.18L593,329.43Z" class="color647ca0 svgShape"/><path fill="#8996b0" d="M821.05,744.05s-89,40.18-171.73,50.59l-20.47-53.53s-2.58,38.56-4.09,55.67a217.52,217.52,0,0,1-27.94-.35C594,676.93,564.49,541.63,547.71,476c-5-19.67-8.94-33.09-10.64-38-7.35-21.14-50.53-84.54-40.42-99.24,8.47-12.36,60.45-44.82,76.84-54.89,3.11-1.91,4.94-3,4.94-3L561.9,216.54l43.19-10.1,23,62.48s6.83,0,16.49.18c22.6.4,60.6,1.75,62.54,6.26,2.75,6.43,12.86,47.8,16.54,56.06,3,6.75,26.75,66,43.39,130.47,3.78,14.63,7.2,29.52,9.91,44.15C791.64,585.06,821.05,744.05,821.05,744.05Z" class="color8996b0 svgShape"/><path d="M821.05,744.05s-89,40.18-171.73,50.59l-20.47-53.53s-2.58,38.56-4.09,55.67a217.52,217.52,0,0,1-27.94-.35C594,676.93,564.49,541.63,547.71,476c21.44,32.22,73.06,91.51,144.82,93.74,60.4,1.9,73.26-61,74.5-107.83,3.78,14.63,7.2,29.52,9.91,44.15C791.64,585.06,821.05,744.05,821.05,744.05Z" style="mix-blend-mode:multiply" fill="#5d7fb3" opacity=".1" class="color5d7fb3 svgShape"/><path fill="#8996b0" d="M496.64,338.77c-19.29,30.33-88.22,203.1-88.22,203.1s45,37.68,45.95,34,80-129.58,86.39-159.91S496.64,338.77,496.64,338.77Z" class="color8996b0 svgShape"/><path fill="#d47b4e" d="M399.23,551.06l-164.5,97.42,11,17.46s198.5-72.6,203.1-79S399.23,551.06,399.23,551.06Z" class="colord47b4e svgShape"/><path fill="#8996b0" d="M707.1,275.36c34,16.54,161.74,84.55,161.74,84.55l-29.4,47.79s-102-42.28-111.21-47.79S703.42,291,707.1,275.36Z" class="color8996b0 svgShape"/><path fill="#d47b4e" d="M847.71 407.7l162.66 77.2 21.14-8.28s-135.1-102-148.88-109.36S847.71 407.7 847.71 407.7zM235 646.61L194.19 651a4.92 4.92 0 00-4.56 4.68h0a3.89 3.89 0 003.42 3.73l8.51 1.44a5.29 5.29 0 004.39-1.29l4.45-4s15.77 6.34 22 3.68A21.73 21.73 0 00239 654C242 650.76 239.48 646.12 235 646.61z" class="colord47b4e svgShape"/><path fill="#d47b4e" d="M243.22,684.52c4.94-7.51,10.78-21.91,9.15-27.09s-20.55-24.69-40,9.71C217.86,673.7,243.22,684.52,243.22,684.52Z" class="colord47b4e svgShape"/><path fill="#d47b4e" d="M214.09,664.2l-28.9,26.28a3.73,3.73,0,0,0-.15,5.74h0a4.73,4.73,0,0,0,6-.26l28.39-24.05-25.64,34.34a3.56,3.56,0,0,0,1.3,5.55h0a4.86,4.86,0,0,0,5.57-1.35l27.2-32.35-18.56,33.55a3.51,3.51,0,0,0,2,5.17h0a4.83,4.83,0,0,0,5.62-2.19l18.75-33.9-9.32,24.9a3.07,3.07,0,0,0,2.52,4.15h0a4.17,4.17,0,0,0,4.44-2.35c2.85-6.58,9.65-22.39,10.34-24.79C244.47,679.6,214.09,664.2,214.09,664.2Z" class="colord47b4e svgShape"/><path fill="#e6d8c7" d="M356.17 932.48c-3.86 4.84-8.13 7.85-9.54 6.72s.57-6 4.44-10.79 8.13-7.85 9.54-6.72S360 927.65 356.17 932.48zM380.19 948.28c-4.14 4.84-8.63 7.79-10.05 6.59s.8-6.11 4.93-11 8.63-7.79 10-6.58S384.32 943.44 380.19 948.28zM371.74 968.16c5.13 2.69 8.66 6.08 7.88 7.58s-5.59.54-10.72-2.15S360.23 967.5 361 966 366.6 965.47 371.74 968.16zM390.26 994.82c4.11 4.54 6.37 9.19 5.05 10.39s-5.74-1.51-9.85-6.05-6.37-9.19-5-10.39S386.15 990.27 390.26 994.82zM339.5 994.39c-1.16 6.6-3.67 11.68-5.59 11.34s-2.55-6-1.39-12.57 3.67-11.69 5.59-11.35S340.66 987.78 339.5 994.39zM348.58 1023c-3.17 5.34-7 8.93-8.56 8s-.25-6 2.92-11.35 7-8.92 8.56-8S351.75 1017.68 348.58 1023zM328.4 1035.16c.28 5.83-.87 10.61-2.57 10.69s-3.3-4.57-3.58-10.39.87-10.61 2.57-10.69S328.12 1029.34 328.4 1035.16zM322.71 1049.08c4.88 4.58 7.75 9.43 6.41 10.86s-6.36-1.14-11.24-5.71-7.75-9.43-6.41-10.85S317.83 1044.51 322.71 1049.08zM331.93 1082c3.95 5.44 5.87 10.79 4.28 11.94s-6.08-2.32-10-7.77-5.87-10.79-4.28-11.94S328 1076.5 331.93 1082zM286 1071.49c-.18 5.82-1.7 10.49-3.4 10.44s-2.92-4.81-2.74-10.63 1.7-10.48 3.39-10.43S286.21 1065.68 286 1071.49zM298.82 1116.26c-1.24 6.46-3.78 11.41-5.66 11s-2.41-5.9-1.17-12.37 3.78-11.41 5.67-11S300.06 1109.79 298.82 1116.26zM257.12 1085.17c4 4.26 6.31 8.67 5.06 9.85s-5.52-1.32-9.56-5.58-6.31-8.68-5.06-9.86S253.08 1080.91 257.12 1085.17zM243.8 1104.09c3.55 5.44 5.13 10.69 3.55 11.72s-5.75-2.54-9.29-8-5.13-10.69-3.55-11.72S240.26 1098.65 243.8 1104.09zM234 1127.51c5.08 2.73 8.55 6.14 7.75 7.62s-5.56.47-10.63-2.26-8.55-6.14-7.76-7.62S228.91 1124.78 234 1127.51zM211.51 1122.92c3 5 4.24 9.81 2.77 10.68s-5.08-2.49-8.08-7.52-4.24-9.8-2.77-10.68S208.51 1117.89 211.51 1122.92zM195.36 1105.54c2.62 5.7 3.4 11 1.73 11.72s-5.14-3.25-7.76-9-3.4-11-1.74-11.72S192.73 1099.83 195.36 1105.54zM175.78 1115.72c-3.33 5.08-7.23 8.4-8.71 7.43s0-5.87 3.35-11 7.24-8.39 8.72-7.42S179.11 1110.65 175.78 1115.72zM146.11 1128.64c2.47 5.86 3.08 11.19 1.37 11.91s-5.09-3.45-7.55-9.3-3.08-11.19-1.37-11.91S143.65 1122.79 146.11 1128.64zM141.17 1094.65c5.1 4.17 8.25 8.77 7 10.25s-6.34-.69-11.44-4.86-8.25-8.77-7-10.26S136.07 1090.47 141.17 1094.65zM138 1071.49c3.94 5 5.94 10 4.49 11.13s-5.83-2-9.77-7-5.94-10-4.49-11.12S134.1 1066.5 138 1071.49zM93.77 1089.26c5.27 2.55 8.94 5.86 8.2 7.4s-5.62.72-10.89-1.83-9-5.86-8.21-7.4S88.49 1086.72 93.77 1089.26zM107 1060.67c-3.94 4.44-8.19 7.1-9.49 5.95s.86-5.68 4.8-10.12 8.2-7.11 9.49-6S110.91 1056.23 107 1060.67zM81.47 1053.14c-3.07 5.88-6.94 9.92-8.66 9s-.62-6.39 2.45-12.27 6.93-9.93 8.65-9S84.53 1047.25 81.47 1053.14zM53.15 1042.17c3.69 4.43 5.63 8.9 4.34 10s-5.33-1.64-9-6.07-5.63-8.89-4.34-10S49.46 1037.75 53.15 1042.17zM62.57 1015.18c-1.94 5.56-4.82 9.61-6.44 9s-1.37-5.53.57-11.09 4.82-9.61 6.44-9S64.5 1009.62 62.57 1015.18zM49.18 998.67c5.22 3.83 8.54 8.16 7.42 9.68s-6.24-.35-11.45-4.17-8.54-8.16-7.42-9.68S44 994.85 49.18 998.67zM51.1 978.65c2.94 5.51 4 10.66 2.41 11.52s-5.28-2.91-8.22-8.41-4-10.66-2.42-11.52S48.16 973.15 51.1 978.65zM51.91 959.67c4 4.27 6.15 8.66 4.91 9.81s-5.46-1.37-9.41-5.63-6.15-8.66-4.91-9.82S48 955.4 51.91 959.67zM44.38 943.67c-.3 5.73-1.91 10.31-3.58 10.22s-2.78-4.81-2.48-10.54S40.23 933 41.9 933.12 44.69 937.93 44.38 943.67zM42.75 920.67c4.76 3.54 7.78 7.54 6.75 8.93s-5.73-.36-10.49-3.9-7.78-7.54-6.75-8.93S38 917.13 42.75 920.67zM24.22 910.13c-1.53 6.19-4.23 10.85-6 10.4s-2-5.82-.5-12 4.23-10.85 6-10.4S25.75 903.94 24.22 910.13z" class="colore6d8c7 svgShape"/><path fill="#e6d8c7" d="M24.44 891.11c4.33 4.84 6.69 9.8 5.27 11.06s-6.06-1.65-10.39-6.5-6.68-9.8-5.27-11.06S20.12 886.26 24.44 891.11zM10.18 880.69c-3.92 4.95-8.27 8-9.71 6.89S1 881.5 5 876.55s8.26-8 9.7-6.89S14.09 875.74 10.18 880.69zM40.89 859.35c0 6.59-1.63 11.93-3.55 11.91s-3.46-5.36-3.42-12 1.63-11.93 3.55-11.92S40.92 852.75 40.89 859.35zM45.33 838.18c3.8 4.6 5.8 9.23 4.46 10.35s-5.52-1.73-9.32-6.33S34.66 833 36 831.85 41.52 833.58 45.33 838.18zM63.07 826.44c.25 5.93-1 10.8-2.68 10.87s-3.34-4.68-3.58-10.61.95-10.8 2.68-10.87S62.82 820.51 63.07 826.44zM59.26 798c5.66 2 9.77 5 9.18 6.65S62.78 806 57.11 804s-9.77-5-9.18-6.66S53.59 796 59.26 798zM74.19 785.16c-.49 6.43-2.4 11.52-4.28 11.37s-3-5.46-2.5-11.89 2.41-11.52 4.28-11.37S74.69 778.73 74.19 785.16zM84.13 762.17c5.05 3.12 8.39 6.85 7.48 8.32s-5.74.13-10.78-3-8.39-6.85-7.48-8.32S79.09 759 84.13 762.17zM104 753.92c1.56 6 1.42 11.17-.32 11.62s-4.41-4-6-10S96.24 744.41 98 744 102.39 748 104 753.92zM122.86 748.94c-3.18 5.43-7 9.08-8.63 8.15s-.29-6.08 2.89-11.51 7-9.08 8.62-8.15S126 743.51 122.86 748.94zM123.12 712.94c-4.25 4.13-8.68 6.47-9.89 5.23s1.27-5.6 5.53-9.73 8.69-6.47 9.89-5.23S127.38 708.81 123.12 712.94zM138.27 702c-.23 6.69-2 12.06-4 12s-3.35-5.55-3.12-12.24 2-12.07 4-12S138.51 695.28 138.27 702zM158.81 701.26c1.7 6.51 1.55 12.19-.35 12.69s-4.82-4.38-6.52-10.89-1.55-12.18.35-12.68S157.11 694.76 158.81 701.26zM178 696.28c-4.86 4.41-9.85 6.83-11.14 5.41s1.62-6.14 6.49-10.55 9.86-6.83 11.14-5.41S182.86 691.88 178 696.28z" class="colore6d8c7 svgShape"/><path fill="#867e74" d="M1043.32,503.26s-39.47,122-129.28,152.88-195.95-41.09-195.95-41.09,2.09-1.64,6-4.51c17.93-13,74.29-51.33,147.9-76.63,53-18.22,103.08-25.62,135.23-28.61C1029.62,503.22,1043.32,503.26,1043.32,503.26Z" class="color867e74 svgShape"/><path d="M1043.32,503.26C974.41,574.05,804,626.06,718.09,615.05Z" style="mix-blend-mode:screen" fill="#867e74" opacity=".3" class="color867e74 svgShape"/><path d="M1043.32,503.26s-39.47,122-129.28,152.88-195.95-41.09-195.95-41.09,2.09-1.64,6-4.51l40-6.79c93.48,94.4,227.11,14.57,240.58-82.65q1.15-8.33,2.54-15.8C1029.62,503.22,1043.32,503.26,1043.32,503.26Z" style="mix-blend-mode:multiply" fill="#867e74" opacity=".3" class="color867e74 svgShape"/><path fill="#5c5145" d="M1043.32,503.26s-5.14,4-14.56,10.55l-1.46,1c-.55.37-1.1.74-1.69,1.12-3.32,2.27-7.08,4.76-11.25,7.43-2.56,1.64-5.26,3.36-8.12,5.11l-.15.09c-2.91,1.81-6,3.68-9.18,5.59l-6.89,4-1.51.85c-2.44,1.4-5,2.83-7.56,4.27q-2.58,1.46-5.27,2.89-4,2.19-8.22,4.37-5.6,3-11.54,5.91l-6,2.94a2.46,2.46,0,0,0-.43.21l-5.75,2.72q-6.25,2.92-12.77,5.79c-2.17,1-4.39,1.91-6.61,2.85s-4.47,1.88-6.73,2.81-4.62,1.88-7,2.78c-4.58,1.82-9.28,3.59-14,5.29-2.4.87-4.81,1.73-7.25,2.56s-5,1.69-7.47,2.5-5,1.6-7.42,2.37c-5,1.53-9.89,3-14.78,4.36-2.38.67-4.74,1.29-7.09,1.92-2,.52-3.94,1-5.91,1.54-.82.21-1.67.42-2.51.61-1.84.48-3.69.91-5.52,1.36l-.44.11c-3.41.81-6.81,1.59-10.16,2.32-2.26.5-4.53,1-6.75,1.44l-6.64,1.34q-5.38,1-10.58,2c-1.2.23-2.41.44-3.61.63l-3.15.54q-8.52,1.41-16.41,2.49c-.75.1-1.48.19-2.21.31a2.45,2.45,0,0,0-.39,0c-2.11.28-4.18.56-6.19.8l-.6.07c-6.59.81-12.72,1.45-18.28,2-7.62.71-14.19,1.17-19.54,1.45-10,.53-15.65.52-15.65.52S782.21,564.78,872,533.91,1043.32,503.26,1043.32,503.26Z" class="color5c5145 svgShape"/><path fill="#fff0dd" d="M1022,516a.83.83,0,0,0-.09.53,3.43,3.43,0,0,0-1.33.86,7.08,7.08,0,0,0-1.28-1.45c.06-1.71-.24-2.92-.93-3.17-1.34-.49-3.67,2.43-5.48,6.72-1.58-2.16-3.13-3.4-4-3a1.31,1.31,0,0,0-.55,1.14c-.33,0-.63.33-.9.8a11.42,11.42,0,0,0-2.75,2.68c-.58-3.08-1.65-5.28-2.66-5.19-.5.06-.91.75-1.19,1.79-.36-1.72-1-2.84-1.75-2.89a1.16,1.16,0,0,0-.81.34c-.85-.9-1.63-1.33-2.2-1.11-1.18.45-1.2,3.41-.19,7.12a.32.32,0,0,0,0,.16c-1.33-1.68-2.59-2.6-3.3-2.24a1,1,0,0,0-.4.47,1.28,1.28,0,0,0-.53.16c-2-2.29-3.81-3.57-4.73-3-.58.36-.65,1.46-.34,2.93-2.7-2-5-2.93-5.82-2.12s.44,3.57,3,6.49c0,0,0,0,0,.06a25.67,25.67,0,0,0-1.63,2.61c-.06.13-.13.27-.2.39-.11-.31-.22-.63-.35-.94-.27-.65-.55-1.3-.85-1.89-.23-1.66-.72-2.75-1.41-2.85-.07,0-.14,0-.23,0-1.22-1.78-2.45-2.78-3.21-2.45s-.93,1.82-.56,3.93a1.24,1.24,0,0,0-.83.46c-.75-.86-1.44-1.3-2-1.12-1.06.36-1.11,3.11-.27,6.53,0,0,0,0-.05,0a23,23,0,0,0-2.76-2.58c-.12-.75-.37-1.22-.77-1.33a1,1,0,0,0-.84.24c-1.09-.62-2-.81-2.4-.44a1.51,1.51,0,0,0-.27,1.38c-3.24-2.74-6.25-4.16-7.18-3.21a1.46,1.46,0,0,0-.23,1.41c-.53.39-.63,1.46-.37,2.94a8.87,8.87,0,0,0-2,2.25,15.25,15.25,0,0,0-2.3.36c-.73-.74-1.39-1.09-1.84-.89s-.74,1.19-.59,2.54c-.32-.41-.63-.8-1-1.14-1.25-2-2.53-3.27-3.34-3a1.15,1.15,0,0,0-.62.89c-.46.43-.56,1.37-.32,2.66a2.32,2.32,0,0,1-4.23-.13c-.51-.7-1-1.06-1.5-1-1,.19-1.42,2.43-1.22,5.44l-2.3.52c-.26-.18-.55-.37-.8-.51a4.49,4.49,0,0,0-1-1.36c.21-1.35.07-2.32-.49-2.64-1.06-.61-3.21,1.08-5.37,4-2,0-3.46.4-3.64,1.18a1,1,0,0,0,.15.71l-.3.29c-2.52-2.33-4.83-3.56-5.66-2.83-.61.53-.24,2,.8,3.89-1.84-1.55-3.47-2.3-4.11-1.74s-.22,2,.82,3.82h0a15.84,15.84,0,0,0-4.87-1.59c-.34-1-.79-1.62-1.35-1.68A1.63,1.63,0,0,0,909,538c-1-1.9-2.09-3-2.92-2.8s-1.29,2.2-1.06,4.89c-.55-.87-1.12-1.35-1.65-1.26-1.1.16-1.7,2.52-1.64,5.79a1,1,0,0,0-.27.07c-.21,0-.43-.1-.64-.12.17-1.45,0-2.49-.6-2.79s-1.57.3-2.61,1.4c-2.41-1.27-4.37-1.72-5-.95s.38,2.5,2.24,4.43l-3.81,1.17c-.27-1.73-.82-2.85-1.57-2.95s-1.77,1.2-2.54,3.28c-.88-.06-1.52.1-1.76.52,0,0,0,.09,0,.13a.62.62,0,0,0-.44-.19.63.63,0,0,0-.29.08,1.41,1.41,0,0,0-1.32.09.72.72,0,0,0-.12.25c.12-1.35-.07-2.3-.62-2.54-1-.44-2.93,1.64-4.57,4.79h0c-.34-.85-.75-1.39-1.23-1.4-.68,0-1.33,1-1.8,2.67-.33-1.09-.77-1.77-1.35-1.84-.8-.08-1.65,1-2.37,2.87a4.17,4.17,0,0,0-1.37.08c-1.65-1.14-3-1.61-3.59-1.08s-.24,1.86.7,3.54l-1.71.66c-2.49-1-4.48-1.19-5.08-.44-2-.7-3.58-.8-4-.1s.29,1.72,1.6,3c-.52,0-1,0-1.47,0-.43-.53-.86-.81-1.27-.76a1.45,1.45,0,0,0-1,.89s0,0-.06,0c-.35-1.45-.88-2.42-1.58-2.49-1.1-.12-2.26,1.94-3.07,5-.63.12-1.08.34-1.2.7a1.06,1.06,0,0,0,.16.87l-1.73.73a33.23,33.23,0,0,0-3.43-.24c.55-2,.55-3.5-.18-3.92s-2,.27-3.37,1.67c-1.67-1.07-3-1.48-3.55-1-.33.34-.25,1,.15,1.93-1.11.45-2.64,2.41-3.94,5.11-.64-.16-1.31-.29-2-.41a22.73,22.73,0,0,0-2.84-.33c-.64-1.56-1.38-2.52-2.07-2.42s-1.07,1-1.31,2.41c-1.72.16-2.9.59-3.22,1.24-2.35-1.62-4.33-2.34-5.05-1.61-.53.51-.29,1.65.46,3.1-1.18.9-2.43,3.87-3.1,7.62a30.3,30.3,0,0,0-1.87-2.62c.1-1.8-.19-3-.94-3.31-.46-.16-1,.11-1.68.67-.83-.59-1.57-.83-2-.56-.7.4-.74,1.77-.28,3.63a28.5,28.5,0,0,0-2.14,4.65,29.21,29.21,0,0,0-1.12,3.68h-.61c1.52-3.9,1.87-7.19.7-7.73-1-.45-2.75,1.17-4.47,3.85a.72.72,0,0,0-.35-.24C797,579,795.16,582,794,586c0,.2-.09.4-.13.59,0,0,0,0-.07-.07-3.08-3.6-6.43-5.8-7.49-4.89-.07.06-.08.16-.14.25a1.39,1.39,0,0,0-1.25-.43c-1.13.39-1.13,3.38-.14,7-1.41-2.24-2.83-3.58-3.7-3.23-.67.28-.87,1.47-.7,3.16a20.56,20.56,0,0,0-2.79,4.05,2.19,2.19,0,0,0-.13.27,1.16,1.16,0,0,0-.4-.25,1.37,1.37,0,0,0-1,.34c-2.28-1.67-4.3-2.55-5.28-2.21-1-.79-1.91-1.1-2.46-.78s-.68,1.56-.3,3.19c-1.09-1.22-2.08-1.87-2.69-1.55s-.68,1.18-.5,2.47a1.5,1.5,0,0,0-1.2-.27c-.71.27-1,1.47-.89,3.17a25,25,0,0,0-3.32,4.67c-.69-3.23-1.82-5.47-2.89-5.37s-1.91,3.08-1.79,7c-1.38-1.73-2.7-2.67-3.44-2.28a.87.87,0,0,0-.27.27c-.62-1.09-1.27-1.75-1.9-1.67-1.09.17-1.68,2.56-1.65,5.86-1-1.37-1.94-2.08-2.62-1.85-1.22.45-1.15,3.87.09,7.94-3.6-.54-6.79-.43-8.53.21-.79-1-1.54-1.54-2.09-1.33-.79.27-1,2-.61,4.26,5.35-.28,11.92-.74,19.54-1.45,5.56-.51,11.69-1.15,18.28-2l.6-.07c2-.24,4.08-.52,6.19-.8l.38-.06v0c.73-.12,1.46-.21,2.21-.31l4.1-.58c4-.58,8.1-1.2,12.31-1.91l2.77-.48a.7.7,0,0,0,.14,0,2,2,0,0,0,.24,0c1.2-.19,2.41-.4,3.61-.63q5.19-.91,10.58-2l6.64-1.34c2.22-.47,4.49-.94,6.75-1.44,3.35-.73,6.75-1.51,10.16-2.32l.44-.11c1.83-.45,3.68-.88,5.52-1.36.84-.19,1.69-.4,2.51-.61,2-.5,3.93-1,5.91-1.54,2.35-.63,4.71-1.25,7.09-1.92,4.89-1.36,9.81-2.83,14.78-4.36,2.45-.77,4.93-1.56,7.42-2.37s5-1.64,7.47-2.5,4.85-1.69,7.25-2.56c4.75-1.7,9.45-3.47,14-5.29,2.35-.9,4.66-1.83,7-2.78s4.51-1.87,6.73-2.81,4.44-1.88,6.61-2.85q6.51-2.85,12.77-5.79l5.75-2.72a2.46,2.46,0,0,1,.43-.21l6-2.94q5.94-3,11.54-5.91,4.21-2.19,8.22-4.37l2.74-1.48c.47-.26.94-.53,1.42-.78l1.11-.63c.68-.37,1.34-.76,2-1.12,1.19-.66,2.36-1.33,3.5-2,.71-.38,1.38-.77,2.06-1.16a.82.82,0,0,0,.38,0,2.37,2.37,0,0,0,1.13-.83l6.89-4c3.22-1.91,6.27-3.78,9.18-5.59l.15-.09c2.86-1.75,5.56-3.47,8.12-5.11,4.17-2.67,7.93-5.16,11.25-7.43C1023.77,515.34,1022.38,515.28,1022,516ZM762.52,607.3c-.41.23-.8.47-1.19.72.42-.53.86-1.1,1.29-1.75C762.57,606.58,762.54,607,762.52,607.3Zm1.62-3.55.14-.3c.06.11.09.24.15.35A.8.8,0,0,0,764.14,603.75ZM882.9,549.94c0,.15.07.33.12.5l-.26.09C882.81,550.33,882.87,550.13,882.9,549.94ZM818.38,573l.42.49c-.14.18-.26.36-.38.54C818.41,573.68,818.41,573.34,818.38,573ZM781,595.4c.17-.29.33-.55.47-.84s.26-.5.38-.74a5.37,5.37,0,0,1,.21.56c.16.39.35.73.51,1.08-.33.21-.66.39-1,.56a2.46,2.46,0,0,1-.44-.09A4.61,4.61,0,0,0,781,595.4Zm246.82-81.66a1.19,1.19,0,0,0-.49,1.06l1.46-1A1.06,1.06,0,0,0,1027.79,513.74Z" class="colorfff0dd svgShape"/><path d="M995.81,540.3c-.22.15-.32.5-.28,1,.34-.3.7-.58,1-.85C996.26,540.24,996,540.19,995.81,540.3Zm-19.62.09c-.38,0-.64.64-.77,1.63-.42-1.7-1-2.83-1.57-2.95a.71.71,0,0,0-.61.28c-.73-.94-1.34-1.43-1.78-1.26-.87.35-.65,3.22.41,6.91a.92.92,0,0,1,0,.16c-1.14-1.75-2.18-2.74-2.71-2.45-.13.07-.19.23-.25.43a.65.65,0,0,0-.41.12c-1.68-2.4-3.22-3.78-3.87-3.33-.42.3-.39,1.37,0,2.83-2.23-2.17-4.11-3.25-4.65-2.53s.62,3.51,2.79,6.54c0,0,0,.05,0,.07a23.41,23.41,0,0,0-1.05,2.41,1.31,1.31,0,0,1-.12.35c-.1-.3-.21-.62-.35-.94-.24-.65-.51-1.3-.79-1.91-.31-1.62-.78-2.72-1.3-2.88-.08,0-.13,0-.2,0-1.08-1.83-2.1-2.9-2.64-2.65s-.59,1.71-.14,3.79c-.21,0-.41.12-.59.38-.65-.9-1.22-1.38-1.6-1.25-.81.28-.61,2.93.31,6.33,0,0,0,0,0,0a26.63,26.63,0,0,0-2.32-2.74c-.16-.73-.39-1.22-.71-1.36a.58.58,0,0,0-.62.17c-.88-.68-1.58-.94-1.87-.61s-.23.71-.11,1.32c-2.72-2.92-5.14-4.54-5.77-3.69-.23.26-.22.73-.08,1.35-.38.33-.36,1.36,0,2.83a6,6,0,0,0-1.37,2,8.17,8.17,0,0,0-1.75.17c-.62-.78-1.16-1.18-1.49-1s-.48,1.11-.25,2.43c-.28-.43-.55-.83-.83-1.18-1.13-2.09-2.2-3.39-2.79-3.14-.22.08-.37.37-.42.82-.32.38-.32,1.28,0,2.55a3.48,3.48,0,0,0-1.3,1.12,5.63,5.63,0,0,0-2-1.57c-.45-.73-.9-1.11-1.25-1.06-.75.1-.89,2.24-.51,5.19l-1.71.32-.66-.56a6.28,6.28,0,0,0-.85-1.4c.05-1.3-.12-2.25-.58-2.61-.88-.66-2.38.8-3.82,3.43-1.58-.15-2.64.12-2.72.87a1.52,1.52,0,0,0,.18.7,1.73,1.73,0,0,0-.21.25c-2.13-2.46-4-3.85-4.57-3.2-.42.46,0,2,.92,3.85-1.54-1.66-2.86-2.51-3.3-2s0,1.92.94,3.78h-.05a12.86,12.86,0,0,0-3.86-1.93c-.34-1-.74-1.64-1.18-1.74s-.62.17-.89.62c-.93-1.93-1.85-3.1-2.48-3s-.81,2-.42,4.67c-.5-.88-1-1.4-1.36-1.35-.84.06-1.12,2.32-.81,5.5a.59.59,0,0,0-.21,0,4.36,4.36,0,0,0-.51-.17c0-1.4-.18-2.43-.68-2.76s-1.18.16-1.88,1.14c-2-1.41-3.5-2-3.9-1.31s.49,2.46,2.07,4.49l-2.82.83c-.36-1.7-.86-2.83-1.46-3s-1.27,1-1.69,3c-.68-.13-1.16,0-1.32.36,0,0,0,.08,0,.12a.6.6,0,0,0-.34-.22c-.08,0-.15,0-.23.06-.45-.21-.8-.25-1,0a.78.78,0,0,0-.08.23c0-1.3-.22-2.24-.68-2.51-.81-.52-2.12,1.36-3.14,4.29-.33-.85-.68-1.4-1.06-1.45s-.93.88-1.18,2.45c-.33-1.08-.73-1.78-1.17-1.89-.64-.15-1.18.88-1.61,2.6a2.48,2.48,0,0,0-1,0c-1.35-1.24-2.47-1.81-2.85-1.34s0,1.79.82,3.5l-1.26.51c-2-1.14-3.54-1.51-3.94-.84-1.61-.84-2.81-1.05-3.06-.4s.35,1.7,1.46,3l-1.13-.13c-.37-.55-.74-.84-1-.83s-.5.31-.65.79c0,0,0,0-.05,0-.38-1.44-.88-2.42-1.42-2.55-.85-.2-1.59,1.72-2,4.64-.47.07-.81.25-.88.59a1.4,1.4,0,0,0,.21.85l-1.27.57a21.82,21.82,0,0,0-2.67-.49c.27-1.9.15-3.37-.44-3.84s-1.51.12-2.46,1.36c-1.37-1.17-2.44-1.68-2.8-1.22s-.12,1,.24,1.9c-.8.35-1.83,2.14-2.61,4.66-.52-.21-1-.39-1.58-.56a16,16,0,0,0-2.22-.55c-.6-1.57-1.26-2.56-1.76-2.52s-.76.89-.83,2.25c-1.32,0-2.18.34-2.38.95-1.95-1.76-3.53-2.62-4-2-.36.46-.08,1.58.6,3.06-.83.78-1.56,3.57-1.77,7.16-.57-1-1.1-1.9-1.65-2.7-.05-1.74-.38-3-1-3.29-.38-.19-.8,0-1.24.51-.69-.64-1.29-.93-1.62-.7-.51.33-.44,1.66.06,3.51a27.35,27.35,0,0,0-1.27,4.36c-.26,1.19-.44,2.38-.58,3.48l-.46,0c.87-3.68.88-6.85-.07-7.47s-2,.92-3.14,3.39a.7.7,0,0,0-.29-.26c-.93-.42-2.12,2.33-2.69,6.13,0,.19-.05.38-.07.56a.23.23,0,0,0,0-.07c-2.66-3.74-5.4-6.16-6.16-5.35,0,.06,0,.14-.08.23-.39-.41-.73-.61-1-.52-.85.29-.61,3.2.44,6.85-1.26-2.29-2.46-3.7-3.09-3.44s-.57,1.37-.29,3a16,16,0,0,0-1.83,3.71,1.17,1.17,0,0,0-.07.25,1,1,0,0,0-.34-.27.75.75,0,0,0-.73.25c-1.9-1.8-3.51-2.82-4.24-2.57-.85-.85-1.56-1.22-1.94-1s-.4,1.46,0,3.07c-1-1.27-1.77-2-2.19-1.72s-.44,1.1-.2,2.37c-.38-.3-.69-.44-.94-.36-.53.21-.64,1.35-.45,3a20.24,20.24,0,0,0-2.17,4.29c-.79-3.2-1.84-5.47-2.64-5.47s-1.23,2.86-.83,6.64c-1.2-1.8-2.3-2.82-2.84-2.49a.66.66,0,0,0-.18.24c-.57-1.11-1.12-1.8-1.6-1.77-.81.08-1.09,2.35-.81,5.57-.87-1.41-1.65-2.18-2.16-2s-.66,1.87-.21,4.17c4-.58,8.1-1.2,12.31-1.91l2.77-.48.07-.25a.94.94,0,0,1,.07.22,2,2,0,0,0,.24,0c1.2-.19,2.41-.4,3.61-.63q5.19-.91,10.58-2l1-.21c.51-.08,1-.19,1.54-.3l1.24-.25,2.87-.58c.75-.17,1.51-.32,2.29-.47l3.16-.68c.44-.11.86-.19,1.3-.29,1.57-.34,3.14-.7,4.72-1.06a2.86,2.86,0,0,0,.42-.1c1.67-.37,3.34-.77,5-1.16l.44-.11c1.83-.45,3.68-.88,5.52-1.36.84-.19,1.69-.4,2.51-.61,2-.5,3.93-1,5.91-1.54,2.35-.63,4.71-1.25,7.09-1.92,4.89-1.36,9.81-2.83,14.78-4.36,2.45-.77,4.93-1.56,7.42-2.37s5-1.64,7.47-2.5,4.85-1.69,7.25-2.56c4.75-1.7,9.45-3.47,14-5.29,2.35-.9,4.66-1.83,7-2.78s4.51-1.87,6.73-2.81,4.44-1.88,6.61-2.85q5.4-2.37,10.63-4.81a3,3,0,0,0,.51-.22c.51-.24,1-.45,1.48-.69l.15-.07,3.16-1.49,2.59-1.23a2.46,2.46,0,0,1,.43-.21c.52-.25,1-.52,1.56-.76,1.5-.75,3-1.45,4.43-2.18q5.94-3,11.54-5.91,4.21-2.19,8.22-4.37l2.74-1.48C977.74,542.15,976.86,540.38,976.19,540.39ZM812.91,600.83a3.17,3.17,0,0,1-.36-.13c0-.16-.11-.36-.16-.53.11-.26.21-.5.3-.77s.15-.46.23-.69c.08.17.15.37.22.55.13.41.32.75.46,1.1C813.37,600.54,813.13,600.69,812.91,600.83ZM887.2,564c0,.14.09.33.15.49l-.2.07A5.54,5.54,0,0,0,887.2,564Zm-47.8,17.33c.1.16.23.32.36.51l-.24.48C839.49,582,839.44,581.69,839.4,581.37Zm142.12-39.89c-.25.13-.34.52-.34,1.06-.24,0-.47.27-.63.71a4,4,0,0,0-.71.68l1.11-.63c.68-.37,1.34-.76,2-1.12C982.33,541.56,981.83,541.28,981.52,541.48Zm7-2.91c-.59-.32-1.33.34-2,1.62.71-.38,1.38-.77,2.06-1.16a.82.82,0,0,0,.38,0A1.08,1.08,0,0,0,988.49,538.57Z" style="mix-blend-mode:multiply" fill="#bfac9f" opacity=".4" class="colorbfac9f svgShape"/><path d="M1000.24,553.19c-.22.14-.32.49-.29,1,.35-.3.71-.58,1-.85A.69.69,0,0,0,1000.24,553.19Zm-53,3.27c-.23.26-.23.73-.08,1.36-.38.33-.36,1.36,0,2.82a.81.81,0,0,0-.2.21l2.59-1.23a2.46,2.46,0,0,1,.43-.21c.52-.25,1-.52,1.56-.76C949.43,556.72,947.73,555.77,947.23,556.46Zm-4.73,5.37c-.28.11-.39.58-.38,1.27.51-.24,1-.45,1.48-.69C943.14,561.92,942.74,561.7,942.5,561.83Zm-3.87-1.89c-.22.07-.37.37-.42.81-.32.39-.32,1.29,0,2.56a3.48,3.48,0,0,0-1.31,1.12,5.68,5.68,0,0,0-2-1.58c-.46-.72-.9-1.11-1.25-1.06-.75.1-.89,2.25-.51,5.2l-1.71.32c-.23-.2-.46-.41-.67-.56a5.55,5.55,0,0,0-.84-1.4c0-1.3-.12-2.26-.58-2.61-.88-.67-2.38.79-3.82,3.42-1.58-.15-2.64.12-2.72.87a1.58,1.58,0,0,0,.18.71,1.32,1.32,0,0,0-.21.25c-2.13-2.47-4-3.85-4.57-3.21-.42.47,0,2,.92,3.85-1.54-1.65-2.86-2.5-3.3-2s0,1.92.93,3.77l0,0a12.7,12.7,0,0,0-3.86-1.94c-.34-1-.74-1.64-1.18-1.73s-.62.16-.89.62c-.93-1.93-1.85-3.1-2.48-3s-.81,2-.42,4.67c-.51-.89-1-1.4-1.36-1.36-.84.06-1.12,2.32-.82,5.5l-.2,0a3,3,0,0,0-.51-.16c0-1.41-.18-2.44-.68-2.76s-1.18.16-1.88,1.14c-2-1.42-3.51-2-3.9-1.32s.49,2.47,2.06,4.49l-2.82.84c-.35-1.7-.86-2.84-1.45-3s-1.27,1-1.7,3c-.67-.13-1.15,0-1.31.36,0,0,0,.09,0,.12a.53.53,0,0,0-.34-.21.39.39,0,0,0-.23.05c-.45-.2-.8-.24-1,0a.9.9,0,0,0-.08.23c0-1.3-.23-2.24-.68-2.51-.81-.51-2.12,1.36-3.14,4.3-.34-.85-.68-1.41-1.06-1.46s-.94.89-1.18,2.46c-.33-1.08-.73-1.78-1.17-1.9-.64-.14-1.19.88-1.61,2.6a2.62,2.62,0,0,0-1,0c-1.35-1.25-2.47-1.81-2.85-1.34s0,1.79.82,3.5l-1.27.5c-2-1.14-3.53-1.51-3.93-.83-1.62-.84-2.82-1.06-3.07-.41s.36,1.7,1.47,3l-1.13-.13c-.37-.55-.74-.85-1.05-.83s-.5.3-.65.78c0,0,0,0,0,0-.38-1.45-.88-2.42-1.42-2.55-.85-.2-1.59,1.71-2,4.63-.47.07-.81.26-.88.6a1.42,1.42,0,0,0,.21.85l-1.27.57a24.08,24.08,0,0,0-2.67-.5c.27-1.89.15-3.36-.44-3.83s-1.52.11-2.46,1.36c-1.37-1.17-2.45-1.68-2.81-1.22s-.11,1,.25,1.9c-.8.34-1.83,2.13-2.61,4.65-.52-.2-1-.38-1.59-.56a15.41,15.41,0,0,0-2.21-.54c-.61-1.57-1.26-2.56-1.77-2.52s-.75.89-.82,2.24c-1.32,0-2.18.34-2.38.95-2-1.76-3.53-2.61-4-2-.36.47-.08,1.59.6,3.06-.83.78-1.56,3.58-1.77,7.16-.57-1-1.1-1.89-1.65-2.7,0-1.73-.38-3-1-3.29-.38-.18-.8,0-1.24.52-.69-.64-1.29-.93-1.62-.71-.51.34-.44,1.66.06,3.52a27.21,27.21,0,0,0-1.27,4.35c0,.22-.08.41-.12.63,1.67-.37,3.34-.77,5-1.16l.44-.11c1.83-.45,3.68-.88,5.52-1.36.84-.19,1.69-.4,2.51-.61,2-.5,3.93-1,5.91-1.54,2.35-.63,4.71-1.25,7.09-1.92,4.89-1.36,9.81-2.83,14.78-4.36,2.45-.77,4.93-1.56,7.42-2.37s5-1.64,7.47-2.5,4.85-1.69,7.25-2.56c4.75-1.7,9.45-3.47,14-5.29,2.35-.9,4.66-1.83,7-2.78s4.51-1.87,6.73-2.81,4.44-1.88,6.61-2.85q5.4-2.37,10.63-4.81c-.07-.08-.12-.16-.19-.25C940.29,561,939.22,559.69,938.63,559.94ZM844,595.25c0-.35-.08-.67-.12-1,.1.17.22.33.35.51Zm47.83-17.84-.2.07a5.54,5.54,0,0,0,0-.56C891.68,577.06,891.72,577.25,891.78,577.41Zm-59.54,18.28c-.81-.51-2,.92-3.14,3.4a.63.63,0,0,0-.29-.26c-.64-.3-1.41.93-2,3,.44-.11.86-.19,1.3-.29,1.57-.34,3.14-.7,4.72-1.06C833.12,598,832.93,596.15,832.24,595.69Zm-12.41,4.4c0,.06,0,.15-.07.23-.39-.41-.73-.61-1-.52-.59.21-.65,1.65-.3,3.73l2.87-.58c.75-.17,1.51-.32,2.29-.47C821.86,600.54,820.36,599.53,819.83,600.09Zm-3.72,3.13c-.23.1-.38.4-.42.86.51-.08,1-.19,1.54-.3C816.78,603.3,816.39,603.1,816.11,603.22ZM986,554.37c-.25.13-.34.52-.34,1.06-.24,0-.47.27-.63.71a4.34,4.34,0,0,0-.71.67l1.11-.63,2-1.11C986.76,554.45,986.26,554.17,986,554.37Zm7-2.92c-.58-.32-1.32.35-2,1.62.71-.37,1.38-.76,2.06-1.15a1.23,1.23,0,0,0,.38,0A1,1,0,0,0,992.91,551.45Z" style="mix-blend-mode:multiply" fill="#bfac9f" opacity=".4" class="colorbfac9f svgShape"/><path fill="#d47b4e" d="M1031.51 476.62c3.49 2.15 17.2 22.47 18.73 28.57s-7.11 38.61-8.64 39.63c-1.25.84-21.43 10.61-28.54 14a4.07 4.07 0 01-4.5-.63h0a4.1 4.1 0 01-.8-5.17c3.15-5.29 10.68-15.11 12-18.41 1.59-4 0-24.39 0-24.39l-4.57-3s-8.13 23.37-11.69 26.93-11.17.51-11.17.51 5.08-18.8 7.11-24.39 12.19-27.95 12.19-27.95S1024.46 474.48 1031.51 476.62zM650.94 373.4c.61 3.65-49.44-69.61-49.44-69.61l-28-19.9c3.11-1.91 4.94-3 4.94-3L561.9 216.54l43.19-10.1 23 62.48s6.83 0 16.49.18l-7 21.86S650.33 369.73 650.94 373.4z" class="colord47b4e svgShape"/><path fill="#d47b4e" d="M505.38,253.9c5.94,22.9,74.59,20.94,92.37-1.2s20-74.87,20.34-89.49a12,12,0,0,1,.36-2.69c3-12.05,24.12-12.92,28.22-18.89,4.4-6.38,1.75-27.76-4.09-36.12-3.32-4.74-18.71-17.71-36.7-27.78-2.3-1.29-4.65-2.52-7-3.68-11.64-5.78-23.8-9.82-34.18-9.46-29,1.08-79,22.33-79,22.33a176.33,176.33,0,0,0-1.1,21.27c0,26.29,4.11,58.64,8.8,86.62.56,3.39,1.14,6.72,1.72,9.95C499.08,227,503.17,245.41,505.38,253.9Z" class="colord47b4e svgShape"/><path fill="#a8623e" d="M505.38,253.9c5.94,22.9,74.59,20.94,92.37-1.2s20-74.87,20.34-89.49a12,12,0,0,1,.36-2.69c3-12.05,24.12-12.92,28.22-18.89,4.4-6.38,1.75-27.76-4.09-36.12-3.32-4.74-18.71-17.71-36.7-27.78-1.38,15.67-5.34,59.12-9.06,81.54A82.88,82.88,0,0,1,594.24,171c-4.3,12.06-72,21.67-100.86,23.78C497.86,221.48,502.84,244.17,505.38,253.9Z" class="colora8623e svgShape"/><path fill="#82172a" d="M561.9,197.64s-.21,1.33-.69,3.53v0c-1.83,8.65-7.52,30.61-19.29,37.08-10.33,5.69-16-11.4-18.42-22.13-.39-1.64-.69-3.15-.92-4.39-.42-2.22-.61-3.61-.61-3.61C541.37,208.71,561.9,197.64,561.9,197.64Z" class="color82172a svgShape"/><path fill="#ffffff" d="M561.9,197.64s-.21,1.33-.69,3.53v0c-7.66,7.48-22.13,16.54-37.71,14.95-.39-1.64-.69-3.15-.92-4.39-.42-2.22-.61-3.61-.61-3.61C541.37,208.71,561.9,197.64,561.9,197.64Z" class="colorfff svgShape"/><path fill="#ad5e36" d="M495.1,204.76c11.14,1.36,25.2-8.75,25.2-8.75s8.87-20.4,7.9-39.83S514.83,105,514.83,105s-11.14-3.53-30.25,3.2c0,26.29,4.11,58.64,8.8,86.62C493.94,198.2,494.52,201.53,495.1,204.76Z" class="colorad5e36 svgShape"/><path fill="#1e2b30" d="M594.44,158.14a6,6,0,0,0,2.38,1.13c5.85,1.52,17.37-.92,17.37-.92s1.74.91,4.26,2.17c3-12.05,24.12-12.92,28.22-18.89,4.4-6.38,1.75-27.76-4.09-36.12-3.32-4.74-18.71-17.71-36.7-27.78-2.3-1.29-4.65-2.52-7-3.68-11.29,21.83-13.64,30.1-4.47,38.44C604.22,121.38,602,134,594.44,158.14Z" class="color1e2b30 svgShape"/><path fill="#2c3352" d="M548.8 135.78c2 6.74 6.29 11.73 9.49 11.14s4.15-6.54 2.12-13.29-6.29-11.73-9.5-11.14S546.76 129 548.8 135.78zM500.28 142.55c2 6.74 6.29 11.73 9.49 11.14s4.15-6.54 2.12-13.29-6.29-11.73-9.5-11.14S498.24 135.8 500.28 142.55z" class="color2c3352 svgShape"/><path fill="#1e2b30" d="M503.17 27.76C506.71 16.2 530.65 5.23 535.35 10c15.83-19.94 32.36-6 44.13 5.8s18.45-1.66 29.48 3.72S625.68 44 625.68 44s10.64-8.3 13.85 1.8c6.25 19.64 23.39 35.55 8.57 46.4S615.59 60.2 578.25 54 503.17 27.76 503.17 27.76zM510.34 190.82c4.78-2.59 11.44-3.92 13.68-4.32 2.78-.53 11-1.94 17.51-1.44 8 .61 33.56 1.11 33.56 1.11s-31.81 19.82-41 14.54a24.06 24.06 0 01-9.23-9.47 25.13 25.13 0 01-3.9 11.9c-5.19 7.93-35.6-.4-35.6-.4S504.52 194 510.34 190.82z" class="color1e2b30 svgShape"/><path fill="#d4b5a1" d="M575,36.3s-55.26-17.27-79-9-10.45,46.86-10.45,46.86Z" class="colord4b5a1 svgShape"/><path fill="#f5d8c6" d="M485.11,92.72s-8.22-11.26-8.89-17.24S557.48,36,578.15,32.23,650.84,83.35,655,91.74s-8.46,22.9-8.46,22.9S603.2,58.82,485.11,92.72Z" class="colorf5d8c6 svgShape"/><path fill="#d47b4e" d="M605.41,184.31s4.37-35.37,7.87-40.06,30.27-4,35,3.89-2,26.1-5,35.39S605.41,184.31,605.41,184.31Z" class="colord47b4e svgShape"/><path fill="#ad5e36" d="M636.29,150.79c-15.45,3.73-18.72,26.14-18.72,26.14s11.71,4.38,12.39-1.42-5.92-3.7-5.92-3.7S624.12,160.45,636.29,150.79Z" class="colorad5e36 svgShape"/><path fill="#d47b4e" d="M541.53,185.06s-22,9.76-29.37,9.4,8.43-53.12,8.19-59.08S512.22,103,512.22,103l14.56-.12Z" class="colord47b4e svgShape"/><path fill="#1e2b30" d="M572.52 109.16c-17.68 2.79-33 7.1-39.32 3s-6.72-12.58-6.72-12.58 36.43-3.77 40.71-4.17S572.52 109.16 572.52 109.16zM518.64 115.06c-12.55-.68-34.74 6.84-34.74 6.84s-1.64-6.55-2.85-8.47 24.4-11.8 28.77-11.32S518.64 115.06 518.64 115.06z" class="color1e2b30 svgShape"/><path fill="#9cbff0" d="M828.41,417.81l30.32-73.52s37.68,22,34,22S845,420.56,845,420.56Z" class="color9cbff0 svgShape"/><polygon fill="#9cbff0" points="399.23 531.76 470.91 575.88 454.37 600.69 393.72 551.06 399.23 531.76" class="color9cbff0 svgShape"/><polygon fill="#8da0c0" points="555.92 294.88 552.65 281.2 586.23 275.7 601.5 303.79 555.92 294.88" class="color8da0c0 svgShape"/><polygon fill="#8da0c0" points="629.58 262.27 652.78 249.45 661.94 269.55 637.52 290.97 629.58 262.27" class="color8da0c0 svgShape"/><path d="M738.15,865.29c-11.17,60.14-38,173.53-52.78,213.1-15.58,41.91-77.62,142.95-139,175.11S433.27,1234,462.5,1197c29-36.76,124.87-150.89,126.36-152.67l0,0s44.72,79.79,77.45-5S715.43,924.7,738.15,865.29Z" style="mix-blend-mode:multiply" fill="#ae9bb1" opacity=".3" class="colorae9bb1 svgShape"/></g></g></svg>